<?xml version="1.0" standalone="no"?>
<!DOCTYPE svg PUBLIC "-//W3C//DTD SVG 20010904//EN"
 "http://www.w3.org/TR/2001/REC-SVG-20010904/DTD/svg10.dtd">
<svg version="1.0" xmlns="http://www.w3.org/2000/svg"
 width="645.000000pt" height="644.000000pt" viewBox="0 0 645.000000 644.000000"
 preserveAspectRatio="xMidYMid meet">

<g transform="translate(0.000000,644.000000) scale(0.100000,-0.100000)"
fill="#000000" stroke="none">
<path d="M2955 6434 c-16 -2 -73 -9 -125 -15 -586 -66 -1197 -330 -1664 -717
-1134 -943 -1485 -2536 -851 -3868 473 -995 1408 -1668 2520 -1816 135 -18
645 -18 780 0 848 113 1600 531 2120 1179 380 474 605 1005 692 1633 24 175
24 605 0 780 -87 628 -312 1159 -692 1633 -512 637 -1233 1045 -2075 1173
-100 15 -627 29 -705 18z m2098 -1619 c-12 -160 38 -239 420 -658 268 -295
312 -354 357 -487 31 -93 25 -231 -13 -311 -53 -109 -131 -184 -262 -250 -92
-46 -167 -120 -218 -214 -18 -34 -67 -95 -112 -141 -125 -127 -203 -155 -483
-173 -185 -12 -221 -27 -264 -106 -72 -130 6 -302 172 -383 36 -17 58 -32 50
-32 -8 0 -42 13 -75 29 -151 71 -225 216 -195 382 31 173 155 315 415 475 148
91 245 199 295 329 20 50 24 79 24 178 1 117 1 119 -26 142 -40 34 -105 41
-217 22 -204 -35 -260 -31 -300 19 l-20 25 -21 -49 c-12 -27 -37 -64 -56 -83
-30 -29 -42 -33 -97 -37 -74 -4 -121 17 -151 67 -23 40 -18 45 24 28 41 -18
92 -8 127 25 82 76 90 191 29 408 -59 210 -59 332 0 455 30 64 117 162 183
207 25 18 74 57 107 88 89 82 166 117 266 119 l46 1 -5 -75z m-2905 -817 c55
-55 -69 -162 -236 -204 -104 -26 -128 0 -37 40 72 32 133 75 186 131 44 46 66
54 87 33z m-55 -275 c75 -21 137 -75 137 -120 0 -75 -107 -152 -240 -173 -74
-11 -256 -12 -343 -1 -57 7 -59 6 -73 -20 -8 -16 -14 -50 -14 -78 0 -86 55
-130 188 -152 72 -11 92 -22 92 -50 0 -19 -3 -20 -145 -55 -382 -92 -675 -363
-675 -624 0 -108 38 -173 127 -217 51 -24 68 -28 148 -27 105 1 196 28 312 92
200 111 466 364 551 526 68 131 214 255 320 272 105 17 156 -88 89 -187 -24
-36 -57 -51 -57 -26 0 8 11 37 25 64 30 58 25 83 -15 83 -71 0 -212 -151 -275
-294 -77 -174 -66 -276 30 -276 95 0 212 72 328 203 102 116 113 134 166 295
89 266 188 451 305 567 86 87 167 109 197 53 58 -108 -123 -450 -393 -744 -64
-70 -65 -72 -81 -160 -28 -152 -28 -164 -17 -220 13 -63 37 -76 88 -50 63 33
208 202 279 325 106 184 226 317 312 346 79 26 137 17 178 -29 38 -41 45 -86
13 -86 -11 0 -26 12 -35 29 -33 65 -78 46 -202 -82 -120 -123 -183 -244 -183
-347 0 -58 15 -71 57 -49 36 19 151 159 248 302 67 97 84 117 105 117 29 -1
60 -21 60 -40 0 -8 -23 -59 -50 -114 -77 -155 -91 -286 -33 -294 29 -4 94 60
161 161 85 125 107 168 142 272 18 55 55 154 82 219 26 66 48 124 48 129 0 25
-245 -27 -318 -68 -32 -18 -49 -22 -56 -15 -17 17 6 42 65 72 64 32 120 46
249 62 l95 11 36 68 c45 87 60 101 93 93 42 -10 53 -48 32 -108 -9 -27 -16
-52 -13 -54 2 -2 76 -7 163 -10 182 -7 315 10 398 51 56 27 66 25 66 -11 0
-32 -44 -58 -135 -81 -55 -13 -118 -17 -299 -17 l-230 -1 -53 -135 c-53 -135
-152 -427 -173 -509 -19 -75 -30 -153 -24 -178 13 -49 87 -21 170 64 50 52
156 207 197 289 31 62 53 82 70 65 16 -16 0 -54 -74 -176 -109 -181 -230 -305
-314 -321 -19 -3 -46 1 -69 10 -53 22 -79 85 -80 193 l-1 81 -68 -74 c-171
-185 -287 -164 -275 48 l4 69 -21 -28 c-82 -113 -170 -196 -222 -209 -62 -16
-117 30 -130 109 l-8 51 -38 -63 c-103 -166 -244 -241 -338 -178 -52 34 -71
98 -65 220 l4 98 -81 -78 c-92 -88 -152 -132 -229 -168 -143 -67 -278 11 -278
160 l0 50 -90 -97 c-177 -190 -352 -308 -542 -366 -93 -29 -168 -35 -255 -22
-249 37 -355 206 -277 438 61 181 246 371 457 466 61 28 101 42 225 82 8 2
-15 19 -49 37 -89 45 -122 99 -121 197 0 56 -3 70 -16 74 -61 17 -199 30 -332
30 -130 -1 -165 -4 -218 -21 -76 -25 -121 -55 -151 -99 -20 -29 -22 -40 -16
-98 7 -62 6 -66 -13 -66 -42 0 -56 86 -26 158 33 80 108 133 223 158 87 18
355 18 486 -1 l99 -14 46 43 c169 157 390 228 563 179z m205 -1529 c25 -17 29
-56 7 -77 -13 -13 -13 -16 0 -27 20 -17 19 -69 -2 -92 -12 -14 -31 -18 -80
-18 l-63 0 0 115 0 115 58 0 c36 0 66 -6 80 -16z m385 1 c5 -11 -7 -15 -56
-17 -62 -3 -62 -3 -65 -35 l-3 -33 55 0 c42 0 56 -4 56 -14 0 -11 -15 -16 -52
-18 -52 -3 -53 -4 -56 -35 l-3 -32 62 -3 c39 -2 64 -8 67 -15 3 -10 -16 -13
-72 -13 l-76 0 0 115 0 115 69 0 c51 0 70 -4 74 -15z m314 -22 c8 -21 28 -73
44 -115 23 -63 26 -78 14 -78 -9 0 -20 11 -25 25 -8 22 -15 25 -60 25 -45 0
-52 -3 -60 -25 -5 -14 -16 -25 -24 -25 -13 0 -13 5 -1 38 26 72 66 176 71 184
11 17 26 6 41 -29z m283 -51 c0 -96 7 -112 51 -112 48 0 59 22 59 117 0 63 3
84 13 80 8 -3 12 -31 12 -96 0 -85 -2 -94 -24 -112 -36 -29 -94 -25 -120 7
-18 23 -21 41 -21 115 0 72 3 89 15 89 12 0 15 -16 15 -88z m488 71 c2 -9 -8
-13 -32 -13 l-36 0 0 -100 c0 -81 -3 -100 -15 -100 -11 0 -15 20 -17 98 l-3
97 -32 3 c-21 2 -33 9 -33 18 0 12 15 14 82 12 54 -2 83 -7 86 -15z m227 -34
c30 -57 40 -56 70 11 10 22 24 40 32 40 18 0 17 -4 -22 -74 -26 -47 -35 -75
-35 -109 0 -35 -4 -47 -15 -47 -11 0 -15 12 -15 49 0 38 -8 64 -35 111 -40 71
-40 70 -20 70 8 0 26 -23 40 -51z"/>
<path d="M4957 4860 c-112 -19 -211 -98 -270 -217 -40 -79 -52 -119 -67 -223
-11 -78 -4 -200 11 -200 5 0 9 8 9 18 0 29 86 229 131 305 52 88 114 170 191
252 56 60 67 76 51 74 -5 -1 -29 -5 -56 -9z"/>
<path d="M5007 4793 c-27 -51 -47 -141 -47 -214 l0 -67 53 0 c31 0 66 -6 85
-16 l33 -17 -26 50 c-46 93 -67 155 -74 226 l-7 70 -17 -32z"/>
<path d="M4916 4719 c-37 -46 -78 -103 -91 -128 -20 -40 -28 -69 -49 -176 -2
-11 -4 -3 -5 18 -1 24 -5 36 -12 32 -21 -13 -94 -204 -87 -226 2 -7 18 0 38
16 19 15 -4 -11 -53 -56 -48 -46 -87 -88 -87 -94 1 -5 14 -26 30 -45 33 -38
37 -61 15 -80 -26 -21 -19 -67 13 -84 l27 -15 -27 -1 c-38 0 -42 -14 -13 -48
29 -35 31 -59 8 -100 -37 -65 22 -122 126 -122 29 0 112 10 183 21 122 20 133
20 171 5 22 -9 43 -14 45 -11 3 3 0 35 -6 72 -12 69 -48 188 -121 393 -23 63
-42 119 -44 123 -1 5 -23 1 -47 -7 -54 -19 -74 -20 -64 -4 5 7 3 8 -5 3 -7 -4
-38 -4 -69 0 -45 6 -53 9 -38 17 15 8 16 12 5 19 -10 6 -8 9 9 9 13 0 20 4 17
10 -3 6 3 10 14 10 15 0 21 7 21 23 0 12 5 29 10 37 7 11 10 4 10 -26 0 -47
11 -54 88 -54 l43 0 -6 58 c-6 59 -26 172 -30 172 -1 0 -19 -7 -40 -16 -25
-10 -41 -12 -48 -5 -9 9 24 29 74 44 13 4 17 24 21 94 4 54 14 109 27 142 11
30 19 56 17 58 -2 2 -34 -33 -70 -78z m-150 -383 c-4 -19 -10 -37 -14 -40 -5
-3 -3 15 2 39 12 52 21 52 12 1z m121 -62 c-3 -3 -12 -4 -19 -1 -8 3 -5 6 6 6
11 1 17 -2 13 -5z m-137 -394 c0 -5 -10 -10 -22 -9 -22 0 -22 1 -3 9 11 5 21
9 23 9 1 1 2 -3 2 -9z"/>
<path d="M4598 4612 c-64 -65 -116 -144 -144 -217 -15 -39 -19 -75 -18 -160 0
-126 22 -218 80 -344 19 -41 40 -104 47 -138 6 -35 14 -63 18 -63 3 0 16 23
30 51 l23 51 -24 20 c-21 17 -24 29 -27 88 -2 50 1 71 12 80 23 19 18 43 -15
75 -38 36 -38 61 -1 100 27 28 29 33 21 75 -21 108 -3 278 42 383 12 26 19 50
16 52 -2 2 -29 -21 -60 -53z"/>
<path d="M5140 4506 c0 -19 116 -173 345 -456 138 -171 187 -258 211 -371 33
-158 -10 -348 -113 -493 l-34 -48 42 23 c65 36 176 149 199 203 63 141 37 308
-74 474 -45 68 -112 147 -324 380 -62 68 -140 159 -174 201 -77 96 -78 97 -78
87z"/>
<path d="M4966 4481 c-12 -18 46 -189 99 -296 30 -60 86 -159 126 -220 78
-120 176 -315 216 -428 43 -125 42 -360 -4 -484 -10 -28 29 10 99 95 153 187
203 348 164 532 -25 120 -73 202 -233 402 -81 101 -180 228 -221 283 -40 55
-86 105 -100 112 -32 14 -138 17 -146 4z"/>
<path d="M4981 4295 c0 -11 4 -27 9 -35 9 -13 10 -13 9 0 0 8 -4 24 -9 35 l-9
20 0 -20z"/>
<path d="M4996 4218 c3 -13 17 -52 31 -88 122 -326 153 -451 161 -640 8 -206
-27 -308 -147 -428 -66 -67 -80 -78 -246 -181 -47 -29 -85 -55 -83 -57 2 -2
40 12 84 31 43 19 131 48 194 65 262 70 369 158 416 341 22 85 13 184 -27 302
-36 109 -81 195 -188 360 -43 67 -102 166 -131 220 -48 90 -81 128 -64 75z"/>
<path d="M4518 3754 c-10 -133 -66 -197 -171 -192 -31 2 -57 0 -57 -5 0 -17
68 -47 108 -47 119 0 180 91 152 227 -18 88 -27 93 -32 17z"/>
<path d="M5346 3083 c-76 -88 -124 -112 -381 -192 -230 -71 -352 -144 -427
-257 -50 -73 -50 -90 -1 -61 32 19 58 23 183 28 316 14 468 96 580 311 33 63
95 219 87 218 -1 -1 -20 -21 -41 -47z"/>
<path d="M1896 3665 c-27 -8 -77 -28 -112 -45 -69 -34 -174 -123 -161 -136 4
-5 65 -10 135 -12 252 -8 445 60 417 148 -17 53 -163 77 -279 45z"/>
<path d="M3170 3488 c-96 -100 -243 -379 -305 -578 -7 -22 -6 -23 9 -11 28 23
139 170 206 271 114 174 190 360 147 360 -9 0 -35 -19 -57 -42z"/>
<path d="M2190 2150 c0 -29 2 -30 45 -30 32 0 47 5 51 15 10 25 -16 45 -57 45
-37 0 -39 -2 -39 -30z"/>
<path d="M2190 2051 c0 -41 0 -41 39 -41 86 0 88 72 2 78 l-41 3 0 -40z"/>
<path d="M2948 2110 l-16 -50 38 0 38 0 -16 50 c-9 28 -19 50 -22 50 -3 0 -13
-22 -22 -50z"/>
</g>
</svg>
